<svg width="174" height="36" xmlns="http://www.w3.org/2000/svg" xmlns:xlink="http://www.w3.org/1999/xlink" viewBox="0 0 174 36">
    <defs>
        <path id="a" d="M0 0h15.829v25.678H0z"/>
        <path id="c" d="M0 0h12.482v17.41H0z"/>
        <path id="e" d="M0 0h13.14v24.45H0z"/>
        <path id="g" d="M0 0h13.139v24.45H0z"/>
    </defs>
    <g fill="none" fill-rule="evenodd">
        <g transform="translate(82.72 7.75)">
            <mask id="b" fill="#fff">
                <use xlink:href="#a"/>
            </mask>
            <path d="M10.13 7.302c0-1.66-.874-2.353-2.833-2.353-1.96 0-2.835.693-2.835 2.353 0 1.6.814 2.384 2.835 2.384 2.02 0 2.833-.785 2.833-2.384zM4.251 18.376c-.361.603-.542 1.206-.542 1.78 0 1.478 1.175 2.263 3.316 2.263 2.684 0 3.89-.724 3.89-2.323 0-1.087-.965-1.72-2.412-1.72H4.25zm.392-5.853c-.301.421-.452.844-.452 1.266 0 .996.573 1.298 2.17 1.298h2.805c3.588 0 5.819 1.84 5.819 4.647 0 3.772-3.015 5.944-8.291 5.944-4.131 0-6.694-1.78-6.694-4.586 0-1.237.573-2.444 1.689-3.561-.724-.543-1.086-1.297-1.086-2.293 0-1.358.634-2.596 1.9-3.711C1.114 10.53.422 9.173.422 7.393c0-3.41 2.713-5.613 6.874-5.613 1.507 0 2.833.302 3.95.875L13.898 0l1.93 3.41-3.015.784c.754.936 1.237 1.901 1.237 3.199 0 3.319-2.654 5.431-6.754 5.431-.965 0-1.84-.09-2.654-.301z" fill="#4D4D4D" mask="url(#b)"/>
        </g>
        <path d="M109.492 22.265v-3.018h-2.02c-2.26 0-3.407.815-3.407 2.444 0 1.238.633 1.841 1.93 1.841 1.206 0 2.743-.603 3.497-1.267m-2.503-5.824h2.503v-.543c0-1.81-1.025-2.656-2.805-2.656-1.356 0-3.105.393-4.522 1.087l-1.205-2.957c1.567-1.087 3.979-1.84 6.12-1.84 4.22 0 6.512 2.232 6.512 6.487v10.47h-3.105l-.452-1.388c-1.78 1.297-3.407 1.84-4.885 1.84-3.226 0-5.035-1.93-5.035-5.189 0-3.47 2.412-5.31 6.874-5.31M117.698 10.014h3.105l.633 1.63c1.357-1.328 3.227-2.113 5.035-2.113 2.02 0 3.436.694 4.28 2.113 1.358-1.359 3.318-2.113 5.097-2.113 3.407 0 5.125 2.082 5.125 6.216v10.741h-4.462v-10.56c0-1.84-.512-2.625-2.472-2.625-.814 0-1.78.211-2.472.453v12.732h-4.463v-10.56c0-1.84-.513-2.625-2.473-2.625-.813 0-1.748.211-2.442.453v12.732h-4.491V10.014zM148.72 16.713h5.758c0-2.806-.782-3.893-2.833-3.893-1.9 0-2.864 1.297-2.925 3.893m10.01 1.026c0 .723-.09 1.599-.18 1.96h-9.799c.21 2.656 1.597 3.742 4.402 3.742 1.115 0 3.136-.452 4.19-.935l.966 3.017c-1.358.755-3.89 1.418-5.669 1.418-5.518 0-8.322-2.987-8.322-8.69 0-5.521 2.774-8.72 7.507-8.72 4.464 0 6.905 2.897 6.905 8.208" fill="#4D4D4D"/>
        <g transform="translate(160.973 9.531)">
            <mask id="d" fill="#fff">
                <use xlink:href="#c"/>
            </mask>
            <path d="M7.839 7.182c3.407 1.176 4.643 2.594 4.643 4.978 0 3.35-2.17 5.25-6.422 5.25-1.899 0-4.16-.452-6.06-1.176l.844-3.35c1.567.483 4.01 1.086 5.186 1.086 1.477 0 2.23-.482 2.23-1.448 0-.845-.512-1.327-3.135-2.293C1.627 8.992.482 7.875.482 5.009.482 2.082 2.984 0 6.602 0c1.93 0 3.86.452 5.669 1.297l-1.206 3.169C9.979 3.893 8.17 3.44 6.965 3.44c-1.448 0-2.292.543-2.292 1.539 0 .935.784 1.388 3.166 2.203" fill="#4D4D4D" mask="url(#d)"/>
        </g>
        <g transform="translate(0 2.571)">
            <mask id="f" fill="#fff">
                <use xlink:href="#e"/>
            </mask>
            <path d="m10.141 7.03 2.16 1.574-5.31 6.726 6.15 7.453-2.13 1.667-7.26-8.969 6.39-8.452zM2.759 24.024H0V.606L2.76 0v24.025z" fill="#FFF" mask="url(#f)"/>
        </g>
        <path d="M20.764 24.627c.38 0 .772-.05 1.18-.151.408-.1.816-.232 1.225-.394.408-.162.793-.359 1.15-.59.36-.233.678-.48.957-.743V18.87h-2.869c-1.453 0-2.514.253-3.181.757-.667.505-1.001 1.303-1.001 2.394 0 1.737.846 2.605 2.54 2.605m-5.18-2.483c0-1.677.555-2.955 1.665-3.833 1.11-.879 2.725-1.319 4.844-1.319h3.182v-1.06c0-2.565-1.121-3.847-3.361-3.847a9.1 9.1 0 0 0-2.264.303c-.79.202-1.515.454-2.176.758l-.81-1.97A11.19 11.19 0 0 1 19.32 10.1c.949-.251 1.875-.38 2.773-.38 3.882 0 5.82 2.092 5.82 6.273v10.603h-2.038l-.33-1.818a9.814 9.814 0 0 1-2.625 1.546c-.93.364-1.815.545-2.657.545-1.46 0-2.603-.42-3.433-1.257-.83-.839-1.247-1.994-1.247-3.468" fill="#FFF"/>
        <g transform="translate(32.827 2.571)">
            <mask id="h" fill="#fff">
                <use xlink:href="#g"/>
            </mask>
            <path d="m10.14 7.03 2.16 1.574-5.31 6.726 6.149 7.453-2.129 1.667-7.26-8.969 6.39-8.452zM2.76 24.024H0V.606L2.76 0v24.025z" fill="#FFF" mask="url(#h)"/>
        </g>
        <path d="M53.592 24.627c.377 0 .772-.05 1.18-.151.408-.1.816-.232 1.224-.394.408-.162.792-.359 1.15-.59.358-.233.677-.48.956-.743V18.87h-2.867c-1.455 0-2.516.253-3.182.757-.668.505-1 1.303-1 2.394 0 1.737.846 2.605 2.539 2.605m-5.18-2.483c0-1.677.555-2.955 1.665-3.833 1.11-.879 2.724-1.319 4.845-1.319h3.18v-1.06c0-2.565-1.12-3.847-3.36-3.847-.72 0-1.474.1-2.265.303-.791.202-1.516.454-2.174.758l-.81-1.97a11.21 11.21 0 0 1 2.654-1.076c.949-.251 1.874-.38 2.775-.38 3.88 0 5.82 2.092 5.82 6.273v10.603h-2.04l-.331-1.818a9.786 9.786 0 0 1-2.624 1.546c-.93.364-1.815.545-2.655.545-1.461 0-2.606-.42-3.436-1.257-.83-.839-1.244-1.994-1.244-3.468M71.847 11.993c-1.44 0-2.545.546-3.315 1.636-.771 1.09-1.156 2.687-1.156 4.787 0 2.081.385 3.652 1.156 4.71.77 1.062 1.875 1.592 3.315 1.592 1.459 0 2.574-.53 3.346-1.591.769-1.06 1.154-2.63 1.154-4.71 0-2.101-.385-3.697-1.154-4.788-.772-1.09-1.887-1.636-3.346-1.636m0-2.241c2.28 0 4.07.747 5.368 2.241 1.301 1.495 1.952 3.637 1.952 6.423 0 2.747-.644 4.858-1.936 6.333-1.289 1.473-3.085 2.21-5.384 2.21-2.28 0-4.07-.737-5.37-2.21-1.3-1.475-1.951-3.586-1.951-6.333 0-2.786.654-4.928 1.964-6.423 1.311-1.494 3.097-2.241 5.357-2.241" fill="#FFF"/>
    </g>
</svg>
