<svg width="176" height="44" xmlns="http://www.w3.org/2000/svg" xmlns:xlink="http://www.w3.org/1999/xlink">
    <defs>
        <path id="a" d="M0 0h121.572v44H0z"/>
    </defs>
    <g fill="none" fill-rule="evenodd">
        <path fill="#F25022" d="M0 21.237h20.218V.944H0z"/>
        <path fill="#7FBA00" d="M22.317 21.237h20.217V.944H22.317z"/>
        <path fill="#00A4EF" d="M0 43.613h20.218V23.32H0z"/>
        <path fill="#FFB900" d="M22.317 43.613h20.217V23.32H22.317z"/>
        <g transform="translate(54.428)">
            <mask id="b" fill="#fff">
                <use xlink:href="#a"/>
            </mask>
            <path d="M27.457 43.613h3.594V28.236h-3.594v15.377zm-.387-19.81c0-.604.217-1.09.65-1.5a2.145 2.145 0 0 1 1.545-.606c.627 0 1.159.218 1.569.63.41.412.627.92.627 1.477 0 .58-.218 1.09-.652 1.477-.434.412-.94.606-1.568.606-.628 0-1.134-.194-1.568-.606-.386-.411-.603-.896-.603-1.477zM42.004 40.973c.53 0 1.134-.121 1.785-.363a7.151 7.151 0 0 0 1.785-.993v3.366c-.579.339-1.23.58-1.954.75a10.7 10.7 0 0 1-2.413.267c-2.243 0-4.077-.727-5.5-2.155-1.423-1.43-2.123-3.27-2.123-5.473 0-2.47.723-4.504 2.172-6.102 1.447-1.6 3.474-2.398 6.128-2.398.675 0 1.35.097 2.05.267.7.169 1.23.387 1.64.605v3.463a7.02 7.02 0 0 0-1.713-.944 5.072 5.072 0 0 0-1.785-.34c-1.423 0-2.557.46-3.45 1.38-.869.92-1.302 2.18-1.302 3.754 0 1.55.41 2.76 1.254 3.633.844.87 1.979 1.283 3.426 1.283M55.828 27.993c.29 0 .555.024.772.048.217.05.434.097.579.145v3.657c-.193-.145-.458-.266-.82-.387a4.16 4.16 0 0 0-1.327-.194c-.893 0-1.64.363-2.244 1.114-.602.751-.917 1.89-.917 3.463v7.773h-3.594V28.235h3.594v2.422h.048c.338-.848.82-1.502 1.496-1.962.676-.46 1.472-.702 2.413-.702M61.135 36.033c0 1.598.362 2.833 1.086 3.68.724.848 1.762 1.26 3.113 1.26 1.302 0 2.316-.412 2.992-1.26.675-.847 1.037-2.106 1.037-3.777 0-1.647-.362-2.906-1.062-3.754-.7-.847-1.712-1.258-2.992-1.258-1.326 0-2.34.435-3.088 1.33-.724.897-1.086 2.132-1.086 3.779m-3.763.12c0-2.542.724-4.552 2.147-6.053 1.424-1.477 3.426-2.228 5.96-2.228 2.388 0 4.27.727 5.621 2.156 1.35 1.428 2.027 3.365 2.027 5.787 0 2.494-.723 4.48-2.147 5.957-1.424 1.477-3.379 2.204-5.838 2.204-2.366 0-4.272-.703-5.646-2.107-1.424-1.38-2.124-3.294-2.124-5.715M78.482 32.28c0 .507.17.92.482 1.21.34.29 1.062.654 2.172 1.114 1.448.581 2.461 1.235 3.041 1.961.579.727.868 1.598.868 2.615 0 1.453-.555 2.616-1.665 3.488-1.109.871-2.605 1.307-4.487 1.307a9.751 9.751 0 0 1-2.099-.242 9.942 9.942 0 0 1-1.954-.58v-3.56c.651.46 1.35.822 2.123 1.09.748.265 1.447.41 2.05.41.82 0 1.424-.12 1.81-.338.386-.219.58-.606.58-1.163 0-.508-.194-.92-.604-1.259-.41-.339-1.158-.75-2.293-1.187-1.327-.556-2.268-1.186-2.822-1.888-.554-.703-.844-1.599-.844-2.664 0-1.38.554-2.519 1.64-3.415 1.086-.896 2.51-1.332 4.27-1.332.532 0 1.135.05 1.81.17.675.121 1.23.266 1.665.46v3.44c-.483-.316-1.037-.582-1.665-.825a5.832 5.832 0 0 0-1.882-.339c-.676 0-1.23.146-1.593.412-.41.266-.603.654-.603 1.114M90.376 36.033c0 1.598.362 2.833 1.086 3.68.724.848 1.76 1.26 3.113 1.26 1.302 0 2.316-.412 2.992-1.26.675-.847 1.037-2.106 1.037-3.777 0-1.647-.362-2.906-1.062-3.754-.7-.847-1.713-1.258-2.992-1.258-1.327 0-2.34.435-3.088 1.33-.724.897-1.086 2.132-1.086 3.779m-3.739.12c0-2.542.725-4.552 2.147-6.053 1.424-1.477 3.427-2.228 5.96-2.228 2.388 0 4.27.727 5.62 2.156 1.352 1.428 2.028 3.365 2.028 5.787 0 2.494-.724 4.48-2.148 5.957-1.423 1.477-3.377 2.204-5.838 2.204-2.365 0-4.27-.703-5.646-2.107-1.423-1.38-2.123-3.294-2.123-5.715M114.286 31.214v7.894c0 1.647.386 2.857 1.134 3.68.748.824 1.906 1.212 3.426 1.212.506 0 1.037-.05 1.568-.17.531-.121.917-.218 1.134-.363v-3.003a3.194 3.194 0 0 1-.772.363 2.504 2.504 0 0 1-.748.146c-.724 0-1.279-.194-1.617-.581-.337-.388-.506-1.066-.506-2.011V31.19h3.667v-2.955h-3.644v-4.552l-3.618 1.114v3.462h-5.38v-1.864c0-.92.193-1.622.602-2.107.412-.484.99-.702 1.739-.702.384 0 .722.048 1.037.145.289.097.505.194.627.267v-3.124c-.265-.097-.555-.145-.893-.194a8.159 8.159 0 0 0-1.158-.072c-1.64 0-2.992.508-4.029 1.549-1.038 1.04-1.568 2.349-1.568 3.972v2.13h-2.558v2.955h2.558v12.422h3.643V31.214h5.356zM23.981 22.157v21.455h-3.715V26.806h-.048l-6.635 16.806h-2.46L4.317 26.806h-.047v16.806H.844V22.157h5.309l6.152 15.91h.095l6.491-15.91zM10.592 12.882c-1.28.727-2.726 1.09-4.343 1.09-1.23 0-2.317-.267-3.281-.823a5.455 5.455 0 0 1-2.196-2.3C.266 9.854 0 8.74 0 7.505c0-1.308.29-2.494.845-3.51a6.06 6.06 0 0 1 2.388-2.423C4.27.993 5.429.701 6.731.701c.652 0 1.303.073 1.955.194.651.121 1.181.291 1.592.485v1.937c-.966-.654-2.196-.969-3.691-.969-.893 0-1.69.218-2.413.654A4.398 4.398 0 0 0 2.51 4.794c-.387.775-.58 1.647-.58 2.615 0 1.526.41 2.737 1.206 3.633.796.896 1.906 1.332 3.306 1.332.893 0 1.689-.17 2.364-.533V8.523H6.08V6.925h4.512v5.957zM19.229 8.281c0-.799-.193-1.404-.555-1.816-.362-.412-.87-.63-1.544-.63-.603 0-1.134.218-1.593.654-.458.436-.723 1.042-.868 1.792h4.56zm1.761 1.38H14.67c.024.921.313 1.623.797 2.131.506.485 1.157.751 1.977.751 1.086 0 2.027-.315 2.848-.944v1.55c-.362.242-.821.46-1.375.605a6.806 6.806 0 0 1-1.714.218c-1.375 0-2.46-.412-3.208-1.235-.748-.824-1.135-1.986-1.135-3.487 0-.92.194-1.768.555-2.494a4.175 4.175 0 0 1 1.544-1.744 4.07 4.07 0 0 1 2.195-.629c1.183 0 2.124.387 2.8 1.162.675.775 1.013 1.84 1.013 3.22v.896h.024zM27.842 13.657c-.169.097-.386.17-.7.218a4.8 4.8 0 0 1-.796.073c-1.689 0-2.533-.945-2.533-2.81V6.053h-1.545V4.6h1.545V2.421l1.761-.557v2.712h2.244V6.03h-2.244v4.795c0 .605.097 1.041.29 1.283.192.242.53.363 1.037.363.338 0 .65-.096.917-.29v1.477h.024zM34.572 13.755h1.762V4.6h-1.762v9.154zm2.004-12.4c0 .292-.097.534-.314.752a1.07 1.07 0 0 1-.796.315c-.314 0-.58-.097-.797-.315-.216-.194-.313-.46-.313-.775s.12-.581.338-.775c.217-.194.482-.315.772-.315.289 0 .555.097.772.315.241.242.338.484.338.799zM43.982 13.657c-.169.097-.386.17-.699.218-.29.05-.556.073-.797.073-1.688 0-2.533-.945-2.533-2.81V6.053H38.41V4.6h1.544V2.421l1.762-.557v2.712h2.243V6.03h-2.243v4.795c0 .605.095 1.041.29 1.283.192.242.53.363 1.037.363.338 0 .65-.096.916-.29v1.477h.024zM55.515 1.695a2.101 2.101 0 0 0-.966-.242c-.99 0-1.471.605-1.471 1.816v1.307h2.075v1.453h-2.075v7.7h-1.762V6.055h-1.544V4.601h1.544V3.196c0-.968.266-1.743.82-2.324C52.692.29 53.44 0 54.405 0c.482 0 .844.048 1.134.169v1.526h-.024zM62.004 6.368c-.096-.072-.289-.145-.53-.218-.24-.048-.46-.096-.627-.096-.628 0-1.135.29-1.52.847-.386.557-.58 1.283-.58 2.18v4.673h-1.761V4.6h1.761v1.841h.048c.194-.63.507-1.114.917-1.477.41-.364.893-.533 1.423-.533.362 0 .652.048.845.121v1.816h.024zM70.256 9.177c0-1.089-.241-1.913-.7-2.47-.483-.557-1.134-.847-2.003-.847-.868 0-1.567.29-2.074.896-.508.581-.749 1.428-.749 2.494 0 1.041.241 1.84.749 2.421.507.582 1.182.872 2.074.872.894 0 1.568-.29 2.026-.847.436-.606.677-1.429.677-2.519m1.808-.048c0 1.477-.433 2.663-1.278 3.535-.844.872-1.978 1.308-3.377 1.308-1.376 0-2.485-.436-3.305-1.284-.821-.847-1.23-1.985-1.23-3.414 0-1.526.433-2.712 1.277-3.584.845-.872 2.003-1.307 3.475-1.307 1.374 0 2.46.411 3.233 1.26.82.846 1.205 2.01 1.205 3.486M87.82 13.755h-1.762V8.548c0-.944-.144-1.622-.434-2.058-.29-.436-.796-.63-1.496-.63-.579 0-1.086.267-1.472.8-.41.533-.603 1.186-.603 1.912v5.183h-1.761V8.379c0-1.671-.651-2.52-1.93-2.52-.603 0-1.11.268-1.496.776-.386.509-.579 1.162-.579 1.962v5.182h-1.761V4.6h1.761V6.03h.024c.652-1.114 1.616-1.647 2.848-1.647.579 0 1.109.17 1.59.485.46.314.798.775 1.015 1.356.362-.63.771-1.09 1.278-1.405a3.465 3.465 0 0 1 1.762-.46c2.001 0 2.992 1.235 2.992 3.729v5.667h.024z" fill="#FFF" mask="url(#b)"/>
        </g>
    </g>
</svg>
